<?xml version="1.0" encoding="UTF-8"?>
<svg id="Layer_1" xmlns="http://www.w3.org/2000/svg" version="1.1" viewBox="0 0 551.4775391 551.4770508">
  <!-- Generator: Adobe Illustrator 29.1.0, SVG Export Plug-In . SVG Version: 2.1.0 Build 142)  -->
  <defs>
    <style>
      .st0 {
        fill: #fff;
      }
    </style>
  </defs>
  <path class="st0" d="M275.7387695,551.4770508c-73.652832,0-142.8969727-28.6816406-194.9770508-80.7617188S0,349.3911133,0,275.7387695,28.6816406,132.8422852,80.7617188,80.762207C132.8417969,28.6816406,202.0864258,0,275.7387695,0c73.652832,0,142.8969727,28.6816406,194.9770508,80.762207,52.0800781,52.0800781,80.7617188,121.3242188,80.7617188,194.9765625s-28.6816406,142.8964844-80.7617188,194.9765625-121.3242188,80.7617188-194.9770508,80.7617188ZM275.7387695,15c-69.6459961,0-135.1230469,27.121582-184.3701172,76.3686523S15,206.0927734,15,275.7387695c0,69.6464844,27.121582,135.1230469,76.3686523,184.3701172,49.246582,49.2470703,114.7241211,76.3681641,184.3701172,76.3681641s135.1235352-27.1210938,184.3696289-76.3681641c49.2470703-49.2470703,76.3691406-114.7246094,76.3691406-184.3701172s-27.1220703-135.1230469-76.3691406-184.3701172S345.3847656,15,275.7387695,15Z"/>
  <path class="st0" d="M290.6722042,392.226939h139.2905884c3.956543,0,7.1140747-3.2810059,6.9996948-7.2359009-1.9163818-66.2543335-29.3078003-97.4679565-92.6998901-95.9514771-9.4852295.2269287-21.2875366,1.5073853-29.098938,3.4159546-.3874512.0946655-.6935425-.3334961-.5281372-.6964722l27.2577515-59.8095093c.0146484-.03125.0283203-.0634766.0419922-.0957031.7304688-1.7617188.2880859-3.8251953-1.1416016-5.171875l-12.6376953-11.4609985-.6502686-.5874634c-2.0307007-1.7984009-4.9135132-2.2328491-7.367981-1.1974487l-1.0083618.4291992-29.5958862,12.3212891c-.4360962.1815186-.8574829-.2871094-.6308594-.7015381l85.9818726-157.2288208c1.1201172-1.8955078.8320312-4.3007812-.7333984-5.8984375l-11.9175415-11.9525146-.4711304-.4663086c-1.8471069-1.6723022-4.4814453-2.2418213-6.8748779-1.4644775l-113.9671021,43.5847778c-2.6348877,1.0025024-4.242981,2.8521118-4.7466431,5.2443848l-.3798218,2.071106-21.0998535,114.8983765c-.0557861.3035278-.3655396.4835815-.6555786.3781128-10.9872437-3.9961548-25.6645508-6.9668579-42.1109619-6.9668579-59.4713745,0-83.6629028,39.6472168-83.6629028,95.4228516,0,55.43927,24.5278931,93.7432251,83.6629028,93.7432251,34.7405396,0,54.4956665-8.5618896,65.3012085-18.4552612.3655396-.3346558.9384766.0159912.8144531.4957886l-29.7927246,115.2980347c-.0366821.1630249-.0721436.3204346-.1088257.4833984-.1209717.632019-.4174805,2.2463989-.4344482,2.9451294-.1069336,4.375,2.0585938,6.1210938,3.3603516,6.7734375.6928711.3466797,1.40625.4970703,2.1142578.4970703,1.9155273,0,3.7915039-1.0996094,5.112793-2.3789062,1.3867188-1.3417969,2.7802734-3.7509766,3.378418-5.0419922l30.3356934-65.4655762c.1804199-.3892822.7285156-.3800659.9031372.0119019,12.75177,28.6307983,43.3043213,46.4807739,91.350708,46.4807739,68.0759888,0,85.5924683-30.0498657,90.352478-52.4829712.9224243-4.347229-2.413208-8.4341431-6.8572388-8.4341431h-23.3792725c-3.0444336,0-5.749939,1.9607544-6.6607666,4.8657227-3.4606323,11.0375977-16.9857178,25.0923462-53.4552002,25.0923462-36.7271118,0-53.2230225-16.7092896-55.8059082-52.9069824-.0923462-1.2943115.9179077-2.4012451,2.2155151-2.4012451ZM293.0179683,298.9381817l31.045166-77.4644165c.2593384-.6465454,1.0837402-.8364258,1.5997925-.3684692l8.5549927,7.7575684c1.0319214.93573,1.340271,2.4313965.7625732,3.6989746l-27.6242676,60.6148071c-.2542114.5576782-.7752075.9002686-1.3516846,1.1082764-4.4761963,1.6151123-8.4960327,3.1298828-12.3538818,5.3024902-.37854.2131348-.7944946-.2460327-.6326904-.649231ZM290.6184322,361.7639873c4.9694214-28.0074463,24.0483398-42.0116577,49.4489746-42.0116577,28.3098145,0,49.664978,10.4904785,55.8088989,41.9815063.2576904,1.3210449-.7474976,2.5567017-2.0934448,2.5567017h-101.0654297c-1.3341675,0-2.3320923-1.2128906-2.098999-2.5265503ZM249.1911861,423.7052715l-.206665.4658203-32.7983398,70.7792969c-.4711914,1.0175781-1.1824951,2.5875244-1.8804321,3.2033691-.1356812.119751-.3900757.2771606-.5553589.2242432-.1409912-.045105-.2218018-.2543335-.2144775-.5629272.0106201-.4341431.1240234-.9135742.5484009-2.1866455.0001221-.0003662.0003052-.0007935.0004272-.0012207l32.3178711-80.5618286c.1826782-.4553833.8362427-.3977051.9460449.0805664.5628052,2.4521484,1.2033691,4.8428955,1.9226685,7.1713867.1417236.4586182.114563.9491577-.0801392,1.3879395ZM257.116357,305.0781353s-9.8381348,23.0152588-24.1322632,36.4914551c-11.6036377,10.9396973-30.5452271,22.3533936-50.6398315,22.3533936-36.9606323,0-54.0960083-24.8643188-54.0960083-60.8157959,0-36.6231079,17.135376-62.4954224,55.1040039-62.4954224,9.0509644,0,18.0257568,1.2719727,24.9910278,3.2786255.4941406.142395.7943726.6400146.7014771,1.145813l-10.6609497,58.053833-.2230225,1.2139282c-.5131226,2.6032715.5114136,5.2810059,2.5994873,6.8950806l.864563.6530151,10.6224365,8.0144653c1.6088867,1.2529297,3.7768555,1.5400391,5.6474609.7568359l38.706604-16.0541382c.3813477-.1581421.6186523.109314.5150146.5089111ZM263.0691768,282.6648662l-3.5698853,13.7644653c-.1276245.3391724-.2828369.5343628-.5848389.6726685l-42.6586304,17.6936035c-.3275146.1358032-.7024536.0880737-.9854736-.1254883l-9.7831421-7.3816528c-.4307861-.3250122-.34729-.994751.1502075-1.2039795l56.8342285-23.9086914c.2140503-.0844116.3706055.00354.446228.0645142.0756836.0621948.1964722.2005615.1513062.4245605ZM279.838525,229.4827373c-.2827148.5427246-.7565918,1.0494385-1.5072021,1.3554688l-19.6480713,8.1798096c-.2439575.1008911-.4104614-.0234375-.487915-.1067505-.0767822-.083252-.1887817-.2579956-.0691528-.4937744l99.7927856-182.8850098c.1600342-.2932129.5570679-.3500977.7929688-.1135254l9.4799805,9.5072632c.6262817.6281128.7640991,1.5936279.338562,2.3718262l-88.6919556,162.1846924Z"/>
</svg>