<?xml version="1.0" encoding="UTF-8"?>
<svg id="Layer_1" xmlns="http://www.w3.org/2000/svg" version="1.1" viewBox="0 0 929.958313 303.1071167">
  <!-- Generator: Adobe Illustrator 29.1.0, SVG Export Plug-In . SVG Version: 2.1.0 Build 142)  -->
  <defs>
    <style>
      .st0 {
        fill: #f8f;
      }
    </style>
  </defs>
  <path class="st0" d="M498.9647217,168.5497437c.7601929-.7817383,1.1622314-1.8108521,1.131958-2.8977661-.4193115-15.0523071-4.0110474-25.7142334-10.9802856-32.5950317-6.9540405-6.8657227-17.5100708-10.2032471-32.2711792-10.2032471-15.2081909,0-26.607605,3.8948364-33.8815918,11.576355-6.6311646,7.0026245-9.9934082,17.3317261-9.9934082,30.7005005,0,13.4224243,3.3625488,23.7700806,9.9942627,30.7554932,7.2575684,7.6447144,18.6566772,11.520874,33.8807373,11.520874,32.482605,0,40.3942871-14.8219604,42.2192993-23.6571045.2426147-1.1744385-.0540161-2.3828735-.8136597-3.3154907-.765686-.9400024-1.9000854-1.4790649-3.1122437-1.4790649h-11.3804932c-1.7532959,0-3.291748,1.1469116-3.828186,2.8540039-2.4032593,7.6469116-13.5006104,10.371582-23.0847168,10.371582-15.5438232,0-22.9703369-6.9136353-24.079834-22.4168091l63.3287354-.0002441c1.0897217,0,2.1091919-.4311523,2.8706055-1.2140503ZM456.699707,137.3532104c13.5393677,0,20.3967285,5.5322266,22.9292603,18.4984741l-46.456604-.0057983-.0013428-.000061c2.2374268-12.6143188,9.7150269-18.4926147,23.5286865-18.4926147Z"/>
  <path class="st0" d="M520.4584961,92.4777222h-11.2910156c-2.2055664,0-4,1.7943726-4,4v104.8945312c0,2.2055664,1.7944336,4,4,4h11.1533813c2.2026978,0,3.9970703-1.7920532,4-3.994751l.1376343-104.8945312c.0014038-1.069458-.4140625-2.0751953-1.1697998-2.8319092-.7556763-.7566528-1.7608032-1.1733398-2.8302002-1.1733398Z"/>
  <path class="st0" d="M616.0662842,168.5497437c.7601929-.7816772,1.1622314-1.8108521,1.131958-2.8977661-.4193726-15.0523071-4.0109863-25.7142334-10.9802856-32.5950317-6.9540405-6.8657227-17.5100708-10.2032471-32.2711792-10.2032471-15.208252,0-26.6077881,3.8948364-33.8820801,11.576355-6.6314697,7.0026855-9.9938965,17.3318481-9.9938965,30.7005005,0,13.4223022,3.3627319,23.7699585,9.994751,30.7554932,7.2578125,7.6447144,18.6571045,11.520874,33.8812256,11.520874,32.4818726,0,40.3933716-14.8219604,42.2183228-23.6571655.2425537-1.1743774-.0540161-2.3828125-.8136597-3.3154297-.765686-.9400024-1.9000244-1.4790649-3.1122437-1.4790649h-11.3797607c-1.7532349,0-3.291687,1.1467896-3.828186,2.8536987-2.4036865,7.6471558-13.5007935,10.3718872-23.0844727,10.3718872-15.5444946,0-22.9713135-6.9136353-24.0808716-22.4168091l63.3297729-.0002441c1.0897217,0,2.1091919-.4311523,2.8706055-1.2140503ZM573.8012695,137.3532104c13.5386963,0,20.395752,5.5322266,22.9282837,18.4984741l-46.4560547-.0057983-.0013428-.000061c2.237854-12.6143188,9.7155762-18.4926147,23.5291138-18.4926147Z"/>
  <path class="st0" d="M664.6196289,138.5158081c13.6967773,0,21.2700195,4.9017944,22.5093994,14.5692749.2523804,1.9686279,1.9537354,3.453186,3.9574585,3.453186h11.1806641c1.1331177,0,2.2197876-.4816284,2.9813232-1.3214722.7459106-.8225098,1.1122437-1.9224243,1.0049438-3.0176392-.9341431-9.5361328-4.8049316-16.8287354-11.5049438-21.6751099-6.902832-4.9931641-17.0396118-7.5248413-30.1288452-7.5248413-29.1323853,0-43.2939453,13.8287354-43.2939453,42.2763672,0,28.2524414,14.1615601,41.9863281,43.2939453,41.9863281,25.2941895,0,39.2741089-9.0244141,41.5514526-26.8225708.1473999-1.1517334-.2069702-2.3109131-.97229-3.1804199-.7584839-.8616943-1.8510742-1.355896-2.9977417-1.355896h-11.3150635c-1.9621582,0-3.6194458,1.4111938-3.9406128,3.3555298-1.3685303,8.2855835-8.8800049,12.4867554-22.3257446,12.4867554-16.6170654,0-23.7070312-7.9161987-23.7070312-26.4697266,0-9.0446777,1.7890015-15.5669556,5.4692993-19.9396362,3.8626099-4.5892334,9.828186-6.8201294,18.2377319-6.8201294Z"/>
  <path class="st0" d="M756.5073242,188.5475464h-3.8310547c-13.3320312,0-15.859375-6.3400269-15.859375-18.0395508v-30.5385742h19.109375c2.2056274,0,4-1.7944336,4-4v-7.2260742c0-2.2056274-1.7943726-4-4-4h-19.109375v-20.5927124c0-2.2060547-1.791626-4.0007935-3.9938354-4.0007935-.2244263,0-.451416.0192261-.6746826.0570679l-11.1503906,1.8901367c-1.9304199.3272705-3.3314819,1.9858398-3.3314819,3.9437256v18.7025757h-7.4814453c-2.2056274,0-4,1.7943726-4,4v7.2260742c0,2.2055664,1.7943726,4,4,4h7.4814453v31.2651367c0,18.8362427,2.546936,34.4282227,33.8476562,34.4282227h4.9931641c2.2056274,0,4-1.7944336,4-4v-9.1152344c0-2.2056274-1.7943726-4-4-4Z"/>
  <path class="st0" d="M812.75354,123.0665894c-.0609741,0-.1224976.0014038-.184021.0042725-8.9212646.4113159-16.3602905,2.5908203-22.1105347,6.4779663-3.9866333,2.6949463-6.4604492,5.7379761-7.9645996,8.2153931l-1.6793823-9.703064c-.3327637-1.9224854-1.9903564-3.3178101-3.9414062-3.3178101h-9.2072754c-1.1102295,0-2.1796875.4671021-2.9342651,1.2814941-.7545166.8143921-1.1387939,1.9163818-1.0541382,3.0233765l1.4944458,19.5516968v52.7723389c0,2.2055664,1.7943726,4,4,4h11.2958984c2.2056274,0,4-1.7944336,4-4v-39.6109009c0-1.5366821.2846069-3.0274658.8459473-4.4309082,2.335083-5.8380737,9.0238037-15.7720337,27.585144-16.7097168,2.1502075-.1086426,3.8345337-1.8637085,3.8345337-3.9954834v-9.5544434c0-2.2079468-1.7855835-4.0042114-3.9803467-4.0042114ZM815.050354,125.1826172c-.0707397-.0870972-.1380615-.1772461-.2178955-.2558594.079895.0787354.1470947.1685791.2178955.2558594ZM815.6106567,126.2651367c-.0357056-.1276855-.0686646-.2566528-.1201782-.3769531.0515137.1203613.0844727.2491455.1201782.3769531ZM815.3793945,125.6825562c-.0549316-.1047974-.1060791-.2120972-.1725464-.3092041.0665283.097168.1175537.2042236.1725464.3092041ZM812.75354,124.0665894c.0893555,0,.1737061.0188599.2611084.0267334-.1321411-.0118408-.2628174-.0298462-.3991699-.0235596.0461426-.0021362.0922852-.0031738.1380615-.0031738ZM814.6361084,124.7634888c-.0836792-.069519-.1647339-.1422729-.2556152-.2024536.0910645.0603027.171814.1328125.2556152.2024536ZM814.1500244,124.4346924c-.0943604-.0511475-.1868896-.1054688-.2869263-.1463013.1002197.0408936.1923828.0950317.2869263.1463013ZM813.605835,124.2075806c-.1030884-.0313721-.204895-.0656738-.3122559-.0857544.1075439.0200806.2089844.0542603.3122559.0857544ZM815.6704712,126.458313c.0410156.197937.0634155.4025879.0634155.6124878,0-.2098999-.0223999-.4145508-.0634155-.6124878Z"/>
  <rect class="st0" x="820.3999023" y="90.1525269" width="19.4404297" height="21.6206055" rx="4" ry="4"/>
  <rect class="st0" x="820.3999023" y="124.7433472" width="19.2958984" height="80.6289062" rx="4" ry="4"/>
  <path class="st0" d="M925.8875732,175.9030151h-11.3150635c-1.9621582,0-3.6194458,1.4111938-3.9406128,3.3555298-1.3685303,8.2855835-8.8800049,12.4867554-22.3257446,12.4867554-16.6170654,0-23.7070312-7.9161987-23.7070312-26.4697266,0-9.0446777,1.7890015-15.5669556,5.4692993-19.9396362,3.8626099-4.5892334,9.828186-6.8201294,18.2377319-6.8201294,13.6967773,0,21.2700195,4.9017944,22.5093994,14.5692749.2523804,1.9686279,1.9537354,3.453186,3.9574585,3.453186h11.1806641c1.1331177,0,2.2197876-.4816284,2.9813232-1.3214722.7459106-.8225098,1.1122437-1.9224243,1.0049438-3.0176392-.9341431-9.5361328-4.8049316-16.8287354-11.5049438-21.6751099-6.902832-4.9931641-17.0396118-7.5248413-30.1288452-7.5248413-29.1323853,0-43.2939453,13.8287354-43.2939453,42.2763672,0,28.2524414,14.1615601,41.9863281,43.2939453,41.9863281,25.2941895,0,39.2741089-9.0244141,41.5514526-26.8225708.1473999-1.1517334-.2069702-2.3109131-.97229-3.1804199-.7584839-.8616943-1.8510742-1.355896-2.9977417-1.355896Z"/>
  <path class="st0" d="M85.2999878,107.4489136l-.0209961-.5218506.0007935-85.6759033c0-2.2055664-1.7943726-4-4-4h-11.1503906c-2.2055664,0-4,1.7944336-4,4l.000061,35.3947144c-5.0079956-3.5829468-14.684082-8.7277222-28.9400024-8.7277222C13.2074585,47.9181519,0,62.9321899,0,90.194519c0,12.7719727,2.9368286,22.8323364,8.7288818,29.9015503,6.3328247,7.729187,15.9083252,11.6482544,28.4605713,11.6482544,13.977478,0,24.7473145-3.875,31.2644653-11.2259521l1.2824097,6.4118042c.3726196,1.8631592,2.0222168,3.2155151,3.9223022,3.2155151h9.1139526c1.1133423,0,2.1848145-.4692993,2.9398193-1.2874756.7549438-.8181763,1.1366577-1.9239502,1.0473022-3.0336304l-1.4411621-17.8939819-.0185547-.4816895ZM66.1294556,74.5737305v29.5499268c0,.4638672-.1713867.9274292-.4825439,1.3052979-5.5040283,6.6834106-13.5625,10.0722046-23.9515991,10.0722046-14.4447632,0-22.3999023-8.9874268-22.3999023-25.3066406,0-22.651123,14.3074341-26.0332031,22.8359375-26.0332031,11.598999,0,19.1291504,4.8907471,23.4037476,8.9936523.3832397.3678589.5943604.8717041.5943604,1.4187622Z"/>
  <path class="st0" d="M174.1709595,107.2590942l-.0224609-.5195923.0009155-53.2227173c0-2.2056274-1.7943726-4-4-4h-11.2958984c-2.2055664,0-4,1.7943726-4,4l.000061,42.3982544c0,2.8477783-.9870605,5.5767822-2.7793579,7.6842041-3.9973755,4.7003174-11.0747681,10.3032837-22.0908203,10.3032837-13.8455811,0-19.4931641-5.8580933-19.4931641-20.2197266v-40.0205078c0-2.2056274-1.7943726-4-4-4h-11.2954102c-2.2055664,0-4,1.7943726-4,4v40.0205078c-.0776367,14.1182861,2.7772827,23.8927002,8.7279663,29.8762207,5.1858521,5.2144775,12.8793335,7.7492676,23.5200806,7.7492676,19.6864014,0,29.984375-10.003418,33.3118896-14.0007324l1.8610229,9.5994263c.3637695,1.8766479,2.0152588,3.2387085,3.9268799,3.2387085h9.2247314c1.1179199,0,2.1923828-.4725342,2.947998-1.2964478.7555542-.8238525,1.1335449-1.9351196,1.0370483-3.0488892l-1.5582275-17.9816895-.0232544-.5595703Z"/>
  <path class="st0" d="M233.3886719,48.354187c-8.2684326,0-15.7706299,1.6611328-22.2980957,4.9372559-5.2731323,2.6465454-8.7268066,5.7774658-10.6672974,7.8925781l-1.5054321-8.3748779c-.3429565-1.9077148-1.9985962-3.2923584-3.9368896-3.2923584h-9.2009888c-1.1154175,0-2.1882935.4707642-2.9435425,1.2915649s-1.1352539,1.9290771-1.0426636,3.0406494l1.4284668,17.140625.006897.1856079.0354614.8526001-.0009155,54.1178589c0,2.2055664,1.7944336,4,4,4h11.2954102c2.2056274,0,4-1.7944336,4-4l-.000061-43.4552002c0-3.3705444,1.4069824-6.5860596,3.8601685-8.8220825,5.796936-5.2838745,12.7191772-7.9629517,20.5744629-7.9629517,13.8184204,0,19.2021484,5.8728027,19.2021484,20.9462891v39.2939453c0,2.2055664,1.7944336,4,4,4h11.1499023c2.2056274,0,4-1.7944336,4-4v-39.1484375c0-27.4473877-9.2585449-38.6430664-31.9570312-38.6430664Z"/>
  <path class="st0" d="M314.1186523,63.2892456c13.6960449,0,21.2692871,4.9018555,22.5092163,14.569519.2525024,1.9684448,1.9537964,3.4529419,3.9574585,3.4529419h11.1803589c1.1331787,0,2.2197876-.4816895,2.9813232-1.3214722.7459717-.8225708,1.1122437-1.9224243,1.0049438-3.0177002-.934082-9.5361328-4.8048096-16.8286743-11.5046387-21.6750488-6.90271-4.993103-17.0394897-7.5248413-30.1286621-7.5248413-29.1323853,0-43.2939453,13.8287354-43.2939453,42.2763672,0,28.2524414,14.1615601,41.9863281,43.2939453,41.9863281,25.2938232,0,39.2736206-9.0244141,41.5510254-26.8225098.1473389-1.1517944-.2070923-2.3110352-.9723511-3.180481-.7584839-.8616943-1.8510742-1.355896-2.9976807-1.355896h-11.3154907c-1.9622803,0-3.6195679,1.4113159-3.9406128,3.3557129-1.3682251,8.2854614-8.8794556,12.4865723-22.3248901,12.4865723-16.6177368,0-23.7080078-7.9161987-23.7080078-26.4697266,0-9.0445557,1.7891846-15.5668335,5.4697876-19.9396362,3.862854-4.5892334,9.8286133-6.8201294,18.2382202-6.8201294Z"/>
  <path class="st0" d="M434.5804749,88.0188141c1.5540771-3.3278732-1.8225098-6.8154831-5.1988525-5.3697357-4.6381226,1.9860382-25.0578918,10.548111-25.0578918,10.548111-.110321.045929-.2187805.0096207-.2853394-.0643845s-.0911865-.1857071-.033844-.2905502c0,0,44.996582-82.2877808,46.7033997-85.4399185,2.2434998-4.1433072-1.9642029-8.8100605-6.3152466-7.0020943-3.6820068,1.5299629-64.6651611,24.9339161-64.6651611,24.9339161-.6665649.2536125-1.2032776.6143761-1.6051636,1.063036s-.6690063.9852142-.7964478,1.5904121c0,0-20.0184326,109.1033974-20.6399536,112.5995979-.4109497,2.3117981,1.8735046,4.1759796,4.0559387,3.3097687,3.302948-1.3109589,26.9195557-11.041275,26.9195557-11.041275.0964661-.0400085.1747131-.0261841.2223206.0229187s.0644836.1334839.038269.2345734l-24.7241516,95.6824951-.0275269.1222992-.0275269.1222992c-.0306091.1598816-.0834045.4440308-.1296387.7323914s-.0858765.5809479-.0901794.7577057c-.0270386,1.106781.2333374,1.8810425.5828247,2.4198608s.7880554.8421936,1.1173706,1.0072327c.175293.0877075.3531494.1505737.5319824.1915283s.3586121.059967.5377502.059967c.4845886,0,.9641724-.1390839,1.406189-.3590851s.8464355-.5209045,1.1806946-.8445435c.3507996-.339447.7024841-.8139038,1.004303-1.2851562s.5537415-.9392853.7050476-1.2658844c0,0,62.7137451-138.4146729,64.5914001-142.4354553l-.0001221-.0000305Z"/>
  <g>
    <path class="st0" d="M96.95298,270.9459839v-49.4414062h7.4399414v23.1210938c2.0800781-1.9199219,7.7602539-6,17.4404297-6,14.3203049,0,20.0805588,9.7597656,20.0805588,22.5605469,0,12.7197266-5.840332,22.0800781-20.0004883,22.0800781-11.1201172,0-16.1606445-4.4804688-18.3203125-7.6005859l-1.2001953,6.8007812h-6.4003906s.9604492-11.5205078.9604568-11.5205078ZM104.3929214,251.2653351v18.2402191c2.1601562,3.4404297,6.7202148,7.5205078,15.6801758,7.5205078,9.7602463,0,14.3207932-6.5605469,14.3207932-15.9199219,0-9.3603516-4.5605469-16.3203125-14.5605469-16.3203125-8.4804688,0-13.5205078,4.3193359-15.4404297,6.4794922l.0000076.0000153Z"/>
    <path class="st0" d="M184.2332458,277.026062c-3.7602539,3.2802734-9.9204102,6.3203125-18.9604492,6.3203125-12.7207031,0-18.0004883-4.9599609-18.0004883-13.2001953-.0800781-11.2001953,8.1601562-14.2402344,21.5205078-14.2402344,7.1201172,0,12.0800781.4794922,14.800293.7998047-.3203125-9.3603516-2.2402344-12.4003906-13.5205078-12.4003906-12.4799805,0-14.0800781,5.8398438-14.0800781,8.4804688h-6.7202148c0-4.0800781,1.7597656-14.1601562,20.4003906-14.1601562,22.0805664,0,21.4404297,10.6396484,21.4404297,24.6396484v8.0810547l.8798828,11.0400391h-6.8798828l-.8798828-5.3603516ZM183.6731873,270.7858276v-8.8798828c-2.4804688-.3203125-6.7202148-.7197266-12.800293-.7197266-10.8803711,0-16.0805664,1.8398438-16.0004883,8.5595703.0800781,4.0800781,2.9599609,7.8408203,12.2402344,7.8408203,9.3603516,0,15.2001953-4.2402344,16.5605469-6.8007812Z"/>
    <path class="st0" d="M221.3518982,303.1071167c-22.2407227,0-20.8007812-16.5605469-20.8007812-16.5605469h7.6801758c0,.3994141-.7197266,11.0400391,13.2802734,11.0400391,14.2407227,0,14.8803711-7.5205078,14.8803711-15.1201172v-5.6806641c-2.3999023,2.9599609-7.3598633,6.4804688-17.6000977,6.4804688-14.1606445,0-19.9204102-9.3603516-19.9204102-22.0800781,0-12.8007812,5.7597656-22.5605469,20-22.5605469,11.4404297,0,17.4404297,5.7597656,18.3208008,6.7998047l1.0400391-6h6.4799805l-.9599609,11.2001953v31.9208984c0,8.7197266-.4799805,20.5605469-22.4003906,20.5605469ZM236.3919373,269.7457886v-18.4804688c-1.8398438-2.0800781-6.7998047-6.4794922-15.5200195-6.4794922-10.0004883,0-14.4804688,6.9599609-14.4804688,16.3203125,0,9.359375,4.4799805,15.9199219,14.2402344,15.9199219,9.0400391,0,13.5205078-4,15.7602539-7.2802734Z"/>
    <path class="st0" d="M254.6307068,250.6256866l-.9604492-11.2001953h6.4003906l1.0400391,6c.7202148-.7197266,6.6401367-6.7998047,18.4003906-6.7998047,14.3203125,0,20.0004883,9.7597656,20.0004883,22.5605316,0,12.7197266-5.7602539,22.0800781-19.9204102,22.0800781-9.9204102,0-15.0405273-3.5205078-17.5205078-6.4003906v26.2412109h-7.4399414v-52.4814453.0000153ZM262.0706482,251.2653351v18.4804535c2.1601562,3.3603516,6.6401367,7.2802734,15.6801758,7.2802734,9.7602539,0,14.3208008-6.5605469,14.3208008-15.9199219,0-9.3603516-4.5605469-16.3203125-14.5605469-16.3203125-8.4804688,0-13.5205078,4.3193359-15.4404297,6.4794922v.0000153Z"/>
    <path class="st0" d="M307.5892029,220.3844757h7.5205078v10.0810547h-7.5205078v-10.0810547ZM307.5892029,239.4254913h7.4404297v43.0410004h-7.4404297v-43.0410156.0000153Z"/>
    <path class="st0" d="M326.2288513,250.6256866l-.9599609-11.2001953h6.3999023l1.0400391,6c.7202148-.7197266,6.6401367-6.7998047,18.4003906-6.7998047,14.3203125,0,20.0004883,9.7597656,20.0004883,22.5605316,0,12.7197266-5.7602539,22.0800781-19.9204102,22.0800781-9.9204102,0-15.0405273-3.5205078-17.5205078-6.4003906v26.2412109h-7.4399414v-52.4814453.0000153ZM333.6687927,251.2653351v18.4804535c2.1601562,3.3603516,6.6401367,7.2802734,15.6801758,7.2802734,9.7602539,0,14.3203125-6.5605469,14.3203125-15.9199219,0-9.3603516-4.5600586-16.3203125-14.5600586-16.3203125-8.4799805,0-13.5205078,4.3193359-15.4404297,6.4794922v.0000153Z"/>
    <path class="st0" d="M399.7478943,283.5065308c-17.0400391,0-23.2001953-9.0400391-23.2001953-22.4804688,0-13.5205078,6.1601562-22.5605469,23.2001953-22.5605469,15.9204102,0,22.8007812,7.2802734,22.8007812,23.6806641h-38.4008789c.2397461,10.3994141,4.8798828,15.5195312,15.5200195,15.5195312,11.5205078,0,14.9604492-5.4394531,15.0405273-8.3193359h7.4404297c-.1601562,4.7998047-3.7602539,14.1601562-22.4008789,14.1601562ZM384.3875427,256.8659058h30.3208008c-1.3598633-9.5205078-6.4799805-12.8808594-15.0405273-12.8808594-9.6000977,0-14.2402344,4.4804688-15.2802734,12.8808594Z"/>
    <path class="st0" d="M466.7859802,283.4264526c-16.9604492,0-22.800293-8.8007812-22.800293-22.3203125,0-13.3603516,5.8398438-22.5605469,22.800293-22.5605469,14.7998047,0,21.7607422,5.9199219,21.9199219,16.7197266h-7.359375c-.0800781-7.6796875-5.8408203-10.7998047-14.5605469-10.7998047-10.9604492,0-15.2001953,6.1601562-15.2001953,16.640625,0,10.7197266,4.2397461,16.3203125,15.2001953,16.3203125,8.6396484,0,14.4003906-2.8007812,14.5605469-9.4404297h7.359375c-.2392578,9.6796875-7.2802734,15.4404297-21.9199219,15.4404297Z"/>
    <path class="st0" d="M516.8651123,283.5065308c-17.6806641,0-23.2802734-8.8808594-23.2802734-22.4804688,0-13.6005859,5.5996094-22.5605469,23.2802734-22.640625s23.2802734,9.0400391,23.2802734,22.640625c0,13.5996094-5.5996094,22.4804688-23.2802734,22.4804688ZM516.8651123,277.5065308c11.7597656,0,15.6796875-5.7607422,15.6796875-16.4804688,0-10.640625-3.9199219-16.5605469-15.6796875-16.5605469-11.6806641,0-15.6806641,5.9199219-15.6806641,16.5605469,0,10.7197266,4,16.4804688,15.6806641,16.4804688Z"/>
    <path class="st0" d="M548.6229248,250.7057648l-.9599609-11.2802734h6.4003906l1.1992188,7.2001953c2.4804688-3.1201172,8.2402344-7.8408203,18.0009766-7.8408203,7.2802734,0,12.4003906,2.3203125,14.8798828,8.8808594,2-2.9599609,8.0800781-8.8808594,19.1210938-8.8808594,11.1201172,0,16.8798828,5.3603516,16.7998047,19.8408051v23.8408203h-7.1201172v-23.8408203c0-8.7197266-3.0400391-13.1201172-12-13.1201172-8.0800781,0-13.2001953,5.0400391-15.4404297,8,.2402344,2.0800781.3994141,4.3203125.3994141,6.8798828v22.0810547h-6.8798828v-22.0810547c0-10.7998047-3.1201172-14.8798828-11.8398438-14.8798828-7.9199219,0-12.8808594,4.8798828-15.1201172,7.9199219v29.0410156h-7.4404297v-31.7607422.0000153Z"/>
    <path class="st0" d="M634.0623779,250.6256866l-.9599609-11.2001953h6.4003906l1.0390625,6c.7207031-.7197266,6.640625-6.7998047,18.4013672-6.7998047,14.3203125,0,20,9.7597656,20,22.5605316,0,12.7197266-5.7597656,22.0800781-19.9208984,22.0800781-9.9199219,0-15.0400391-3.5205078-17.5195312-6.4003906v26.2412109h-7.4404297v-52.4814453.0000153ZM641.5028076,251.2653351v18.4804535c2.1591797,3.3603516,6.6396484,7.2802734,15.6796875,7.2802734,9.7607422,0,14.3203125-6.5605469,14.3203125-15.9199219,0-9.3603516-4.5595703-16.3203125-14.5605469-16.3203125-8.4794922,0-13.5195312,4.3193359-15.4394531,6.4794922v.0000153Z"/>
    <path class="st0" d="M721.2615967,277.026062c-3.7607422,3.2802734-9.9208984,6.3203125-18.9609375,6.3203125-12.7197266,0-18-4.9599609-18-13.2001953-.0800781-11.2001953,8.1601562-14.2402344,21.5205078-14.2402344,7.1201172,0,12.0800781.4794922,14.7998047.7998047-.3193359-9.3603516-2.2392578-12.4003906-13.5195312-12.4003906-12.4804688,0-14.0810547,5.8398438-14.0810547,8.4804688h-6.7197266c0-4.0800781,1.7597656-14.1601562,20.4003906-14.1601562,22.0800781,0,21.4404297,10.6396484,21.4404297,24.6396484v8.0810547l.8798828,11.0400391h-6.8798828l-.8798828-5.3603516ZM720.7010498,270.7858276v-8.8798828c-2.4794922-.3203125-6.7197266-.7197266-12.7998047-.7197266-10.8808594,0-16.0800781,1.8398438-16.0009766,8.5595703.0800781,4.0800781,2.9609375,7.8408203,12.2402344,7.8408203,9.3603516,0,15.2011719-4.2402344,16.5605469-6.8007812Z"/>
    <path class="st0" d="M738.9403076,250.7057648l-.9599609-11.2802734h6.3994141l1.2001953,7.6796875c2.4003906-3.0400391,8.4804688-8.3203125,19.1210938-8.3203125,11.6796875,0,17.1201172,5.3603516,17.1201172,20.2411957v23.4404297h-7.3603516v-23.5205078c0-9.0400391-3.2001953-13.4404297-12.4003906-13.4404297-8.4003906,0-13.4404297,5.0400391-15.6796875,8.0800781v28.8808594h-7.4404297v-31.7607422.0000153Z"/>
    <path class="st0" d="M804.3006592,282.4664917h-2.9609375l-19.5195312-43.0410156h8.2392578l16.4003906,37.9208984,15.4404297-37.9208984h8.0810547l-25.7607422,61.0410156h-7.2001953l7.2802734-18Z"/>
  </g>
</svg>